<svg version="1.1" id="Layer_1" xmlns="http://www.w3.org/2000/svg" xmlns:xlink="http://www.w3.org/1999/xlink" x="0px" y="0px"
	 width="100%" viewBox="0 0 1024 1024" enable-background="new 0 0 1024 1024" xml:space="preserve">
<path fill="#000000" opacity="1.000000" stroke="none" 
	d="
M140.535889,639.326050 
	C129.002579,607.316162 121.796867,574.715210 118.963661,541.232239 
	C116.981491,517.806946 117.459633,494.363647 119.423157,470.888336 
	C124.176552,414.058319 142.397614,361.687256 171.122833,312.811859 
	C198.980194,265.413116 235.981934,226.426117 280.924042,194.783936 
	C313.888031,171.575089 349.405365,153.569855 387.831024,141.532379 
	C412.453308,133.819046 437.650848,128.384415 463.360870,125.618561 
	C512.414551,120.341423 560.770569,124.255539 608.299683,137.333771 
	C687.830627,159.217712 753.995178,201.673416 805.652222,266.320984 
	C836.656860,305.122589 860.457275,347.754333 874.795898,395.443481 
	C882.577332,421.323822 887.795959,447.720490 890.407593,474.644684 
	C895.485046,526.991760 888.114746,577.884521 872.885742,627.896362 
	C857.776611,677.514282 833.236572,722.036133 799.599304,761.395386 
	C752.300659,816.740051 694.419312,856.464783 624.761902,878.738037 
	C579.519531,893.204468 533.285034,899.572998 485.906586,897.044434 
	C461.789429,895.757263 437.904419,892.296692 414.349243,886.793457 
	C409.015930,885.547424 403.641357,884.700684 398.115723,885.325562 
	C384.291870,886.888733 372.632324,880.126343 360.555450,875.236389 
	C353.164459,872.243713 345.904083,868.726318 339.528717,863.849121 
	C316.910065,846.545837 290.542297,835.121033 268.041748,817.514038 
	C248.916733,802.548523 231.451523,785.988159 215.422653,767.903320 
	C188.150146,737.132751 166.115631,702.973267 150.632294,664.753052 
	C147.257126,656.421570 143.982941,648.049133 140.535889,639.326050 
M413.198120,831.184082 
	C446.097015,840.306519 479.476440,845.229492 513.753967,844.177368 
	C542.208008,843.304077 570.099243,839.129822 597.325012,831.170349 
	C659.520813,812.987366 712.416016,779.582642 754.549194,730.425537 
	C819.665161,654.454285 847.954407,566.636597 835.804199,466.644073 
	C830.109863,419.781738 814.243286,376.371582 789.568237,336.335205 
	C764.157532,295.105255 731.421875,260.726624 690.924500,233.759445 
	C627.926025,191.808823 558.805786,172.711853 483.271942,177.143646 
	C445.171204,179.379135 408.688599,188.685410 373.705627,203.798141 
	C339.173401,218.716156 308.089813,238.894135 280.075104,264.143677 
	C256.335388,285.540192 236.362030,309.886414 219.517563,336.834045 
	C195.560974,375.159576 180.242920,416.710175 173.898529,461.585999 
	C169.128891,495.323059 169.062149,529.008728 174.711014,562.542114 
	C180.831665,598.876282 192.433319,633.426880 209.946304,666.025757 
	C230.786148,704.817444 257.494507,738.686218 291.579437,766.648682 
	C327.559509,796.165771 367.403320,818.426636 413.198120,831.184082 
z"/>
<path fill="#000000" opacity="1.000000" stroke="none" 
	d="
M664.093750,333.277374 
	C665.077759,331.537933 666.181030,330.228699 666.262878,327.736420 
	C650.835144,332.681824 636.825500,339.848419 623.290222,348.119232 
	C635.408936,343.001678 647.454163,337.768219 660.123230,334.328918 
	C660.393860,334.829132 660.664429,335.329315 660.935059,335.829529 
	C655.766296,339.825195 650.839905,344.195831 645.372498,347.729279 
	C637.042786,353.112610 629.606018,359.415680 622.936646,366.707733 
	C620.233215,369.663574 618.740784,370.439972 614.930664,366.475677 
	C610.283264,361.640350 608.345276,354.291168 600.877258,351.680786 
	C597.393250,350.462952 596.079224,345.836456 596.887512,341.688629 
	C598.128845,335.318878 599.538025,328.981628 600.897644,322.635193 
	C601.994934,317.513489 605.770752,314.916077 610.147644,312.893829 
	C632.225891,302.692902 654.527405,293.012390 677.205566,284.216583 
	C682.325623,282.230743 687.413452,280.069763 692.682678,278.577667 
	C708.814575,274.009552 723.288025,287.055328 720.404114,303.631836 
	C716.015259,328.858521 711.424255,354.050812 706.749817,379.226257 
	C705.930115,383.640869 706.577148,387.231323 709.326538,390.862976 
	C720.922668,406.179962 731.298096,422.271301 738.723999,440.074158 
	C740.269592,443.779510 742.556519,445.004852 746.405151,444.757202 
	C750.886780,444.468781 755.417358,444.931732 759.897583,444.632599 
	C773.927307,443.695801 789.405457,453.165680 788.992004,474.042511 
	C788.714783,488.033905 788.552856,502.028687 788.481384,516.022705 
	C788.412598,529.498047 789.443542,542.964111 788.484741,556.453125 
	C787.403320,571.667175 776.852844,581.833679 761.488525,582.024841 
	C756.822998,582.082886 752.151489,582.144836 747.491028,581.975708 
	C743.788757,581.841370 741.773560,583.255554 740.600525,586.916565 
	C731.266296,616.049622 716.067505,642.092163 693.336792,662.268311 
	C681.617188,672.670776 682.355896,682.296021 685.733704,694.679993 
	C689.145447,707.188599 691.668213,719.938660 694.629028,732.571533 
	C699.233459,752.217468 684.047119,764.787109 669.079224,764.730591 
	C641.597595,764.626770 614.094604,764.873840 586.602295,765.178894 
	C574.326782,765.315125 564.486267,758.175964 560.762390,746.416016 
	C558.753845,740.072998 556.894043,733.658264 555.455017,727.167725 
	C554.418152,722.490845 552.113159,721.352295 547.711853,722.516724 
	C532.789368,726.464417 517.536682,727.368103 502.165070,727.410034 
	C488.106903,727.448364 474.260651,725.993408 460.575714,722.811584 
	C454.069702,721.298828 454.055359,721.359253 452.185120,727.999451 
	C450.470001,734.088989 448.920349,740.230957 447.005280,746.256897 
	C443.409485,757.571289 434.140533,764.232178 422.232788,764.335266 
	C395.752411,764.564636 369.272247,764.832031 342.791412,764.975830 
	C338.808319,764.997437 334.750732,764.812683 330.850739,764.073730 
	C319.497650,761.922302 310.146179,747.897156 312.212616,736.322327 
	C315.518799,717.803650 320.279785,699.606567 325.252686,681.496094 
	C327.064911,674.896301 326.067047,670.344482 321.440308,665.394165 
	C304.556458,647.329468 291.737762,626.558533 281.844269,603.929932 
	C274.397278,586.896973 269.159821,569.242310 266.783997,550.798035 
	C266.320160,547.196960 264.748108,545.955444 261.282990,546.006592 
	C232.495209,546.432190 213.437469,522.685364 212.025101,500.273743 
	C210.021545,468.481110 239.140121,447.060822 263.396545,451.395844 
	C272.066284,452.945221 272.033661,452.775024 275.314728,444.532410 
	C290.560577,406.232269 314.463379,374.322418 346.336823,348.270813 
	C359.424042,337.574036 373.499756,328.440582 388.576904,320.824951 
	C390.668518,319.768433 392.796234,318.887421 395.126129,318.462952 
	C401.425598,317.315369 405.497284,319.829132 407.054047,326.032562 
	C407.983185,329.735046 408.582031,333.528809 409.661011,337.183655 
	C412.134918,345.563660 410.792542,349.484955 403.139160,353.665039 
	C391.856201,359.827515 380.896942,366.499878 370.858124,374.531586 
	C336.202545,402.258423 311.171448,436.409302 303.002228,480.835114 
	C291.220123,544.908813 307.668304,601.096924 353.204285,647.868591 
	C362.927673,657.855835 366.151581,666.826965 361.634247,680.184998 
	C356.862061,694.296509 354.354858,709.168396 350.713165,723.671692 
	C349.802765,727.297485 350.773834,729.211121 354.561768,729.261047 
	C365.554108,729.406006 376.547394,729.480957 387.540436,729.570435 
	C390.426636,729.593933 391.027039,727.303772 391.585846,725.242065 
	C396.472595,707.212769 404.249359,690.166687 409.557129,672.282288 
	C410.030243,670.688110 410.608124,669.117126 411.252258,667.583618 
	C412.009827,665.780090 412.410950,663.425110 414.792877,663.165344 
	C417.358124,662.885620 419.482819,664.442139 420.489655,666.562927 
	C423.197144,672.265991 424.045013,678.401489 422.485840,684.538574 
	C421.418915,688.738220 417.041046,688.510620 413.848419,689.440491 
	C406.796783,691.494507 404.651733,694.318054 404.711090,701.826233 
	C404.755676,707.465515 401.434418,712.232483 400.206390,717.596313 
	C398.217529,726.283752 401.177521,730.222595 409.791016,729.626465 
	C412.898651,729.411377 414.750214,727.981934 415.663788,725.142578 
	C418.009583,717.851685 420.650330,710.636841 422.589691,703.238647 
	C425.266876,693.025818 430.341156,685.216248 441.083557,682.330566 
	C444.766510,681.341187 443.573090,678.141357 444.530151,674.421509 
	C483.410950,687.627197 522.609436,686.508789 561.321106,676.073608 
	C563.201721,678.869812 560.760437,679.796875 560.707214,681.642883 
	C574.662598,680.827209 580.893250,689.389343 584.360168,701.274902 
	C586.550598,708.784119 588.917969,716.242981 591.015381,723.777527 
	C592.072205,727.573914 594.149231,729.280823 598.190796,729.047607 
	C602.676025,728.788818 607.187744,729.021667 611.687073,728.968994 
	C618.126221,728.893677 618.823914,728.048279 616.987610,721.950867 
	C612.667725,707.606995 608.245117,693.294128 603.852173,678.972412 
	C602.582947,674.834412 601.322266,670.692627 599.965820,666.582886 
	C598.985657,663.613159 599.464355,661.450684 602.617737,660.133850 
	C622.067993,652.011230 637.198364,637.797668 652.891052,624.379456 
	C654.154297,623.299316 655.443054,622.240662 656.793945,621.275696 
	C657.294739,620.917969 658.008423,620.858398 658.834290,620.596497 
	C660.839417,623.230225 661.930359,626.065369 662.137451,629.297058 
	C662.412476,633.588440 664.750122,634.138611 668.677612,633.614990 
	C675.862549,632.657227 678.682434,626.839478 682.294800,622.112305 
	C690.693115,611.122314 697.582092,599.293152 702.841003,586.355713 
	C707.765625,574.240417 712.182800,561.994751 716.205688,549.577271 
	C716.556396,548.494812 717.189392,546.609558 717.696960,546.607605 
	C724.155640,546.582947 725.174622,538.650452 731.149902,537.708557 
	C736.696289,536.834351 741.942627,534.139099 747.768250,534.788208 
	C751.895020,535.248047 752.809998,533.170959 752.768372,529.450073 
	C752.611755,515.451965 752.712708,501.451111 752.690369,487.451355 
	C752.680054,480.993317 752.180664,480.452545 745.478088,480.412689 
	C737.154541,480.363190 728.827454,480.350159 720.507385,480.549622 
	C717.001892,480.633606 714.776672,479.600311 713.912354,475.992737 
	C708.254578,452.379211 696.991638,431.532379 681.716431,412.897339 
	C671.820190,400.824463 662.049377,388.485016 648.679993,379.814514 
	C645.803162,377.948761 645.421082,375.438812 646.802002,372.433197 
	C652.710876,359.573090 657.488586,346.214874 664.093750,333.277374 
M648.525330,701.352234 
	C642.699707,698.644104 646.668274,691.606506 642.957275,687.999939 
	C641.200867,688.478149 640.996643,689.762756 641.118103,690.853027 
	C641.807251,697.039429 639.527771,702.529175 637.777588,708.281433 
	C636.094238,713.814148 635.807922,719.715576 639.277161,725.131470 
	C641.559998,728.695190 647.727783,730.519165 652.261414,728.461304 
	C656.722107,726.436646 655.694519,722.822205 655.110718,719.054504 
	C654.154358,712.881409 650.717651,707.701477 648.525330,701.352234 
M253.663376,489.006226 
	C249.363449,492.747009 247.774353,497.800354 249.819855,502.227753 
	C251.877594,506.681610 255.397980,508.984924 260.475769,508.898651 
	C263.330750,508.850128 264.796356,507.888062 264.726318,504.845215 
	C264.627319,500.542725 264.695770,496.235901 264.725128,491.931152 
	C264.746521,488.794922 263.081757,487.496155 260.094879,487.390656 
	C258.043243,487.318176 256.173340,487.883698 253.663376,489.006226 
z"/>
<path fill="#000000" opacity="1.000000" stroke="none" 
	d="
M420.096558,504.966553 
	C420.379242,507.697479 420.729095,509.975342 422.398499,511.812408 
	C424.704712,511.981995 426.105194,510.397400 427.654694,509.233246 
	C446.035980,495.422668 464.373627,481.553925 482.772186,467.766449 
	C488.357666,463.580780 494.221832,460.159607 501.674255,462.776581 
	C505.067047,463.967957 507.847534,466.027405 510.352051,468.512085 
	C519.578491,477.665436 528.871277,486.754517 537.957458,496.045410 
	C541.346985,499.511261 543.984192,499.931976 548.047913,496.677368 
	C558.446533,488.349060 569.185791,480.437469 579.931763,472.553986 
	C589.427307,465.587860 600.150208,467.362274 610.682678,469.003693 
	C613.237122,469.401794 615.670166,471.019196 617.464966,473.055664 
	C621.839661,478.019501 623.776123,484.618622 630.358582,490.040985 
	C621.519226,491.096191 622.692017,496.635925 622.108154,501.587280 
	C619.280518,525.568176 611.534851,547.625549 595.535095,566.164795 
	C591.853577,570.430725 590.122131,574.800354 591.621399,580.283936 
	C593.428955,586.894348 600.838562,588.907104 605.803528,584.130859 
	C606.639221,583.326904 607.311951,582.320801 608.234863,581.647949 
	C609.581970,580.665710 611.095947,579.788879 612.870667,580.475708 
	C614.777771,581.213684 614.804077,582.971863 614.964844,584.648254 
	C615.307983,588.226135 614.018616,591.924133 616.009583,595.411499 
	C616.606079,596.456360 615.583252,597.642517 614.796692,598.507324 
	C605.286804,608.964355 594.375488,617.616394 581.555603,623.659607 
	C577.041260,625.787659 572.111877,623.818054 569.724243,619.202209 
	C568.125427,616.111206 566.806213,612.893738 565.835632,609.490356 
	C563.198486,600.243042 556.533081,596.953796 547.501404,600.052673 
	C514.952393,611.220642 483.050049,609.767700 451.837708,595.089172 
	C448.243713,593.398987 448.242157,593.402283 444.826569,596.024597 
	C443.981323,595.354431 442.889252,594.798157 442.229980,593.917847 
	C435.893646,585.455872 427.659576,578.898621 420.173584,571.575745 
	C396.159790,548.085266 384.710266,518.899231 382.350464,485.823883 
	C381.826416,478.478455 387.081970,471.585968 394.339020,469.171906 
	C401.341309,466.842621 408.644348,469.499176 413.264587,475.684357 
	C417.325195,481.120361 417.054565,487.599426 418.162262,493.761353 
	C418.808807,497.357880 419.398956,500.964600 420.096558,504.966553 
M514.703491,520.775452 
	C511.319214,516.999084 507.701721,513.702942 502.257996,513.201904 
	C498.221466,512.830444 496.447784,510.560455 497.243591,506.397278 
	C497.473999,505.192078 498.095001,503.612701 496.572266,502.762512 
	C494.885376,501.820648 493.812134,503.254761 492.639648,504.117035 
	C477.083038,515.557800 461.513245,526.980835 445.992401,538.470032 
	C444.051880,539.906494 441.680878,541.023254 440.751465,543.792297 
	C442.675751,546.106201 444.328888,548.671875 448.098572,547.187378 
	C450.852173,546.102905 451.769623,548.067932 452.126862,550.152466 
	C452.911621,554.731995 456.057556,557.291565 459.662445,559.542725 
	C487.742493,577.078308 516.604736,577.143555 545.568542,562.415710 
	C559.617371,555.272095 570.771545,544.512939 578.118896,530.250366 
	C579.487671,527.593384 580.330200,524.923401 577.532471,522.580933 
	C574.920837,520.394287 572.916016,522.163818 570.884827,523.657654 
	C564.986450,527.995239 559.259094,532.592285 553.151672,536.611938 
	C544.700317,542.174255 538.564148,541.700745 530.878723,535.228210 
	C525.532715,530.725952 520.426575,525.938721 514.703491,520.775452 
z"/>
<path fill="#000000" opacity="1.000000" stroke="none" 
	d="
M425.572754,332.178925 
	C415.788025,297.583984 428.589813,262.703644 454.166473,243.886749 
	C499.641876,210.430237 565.484070,230.743179 582.167542,283.766815 
	C595.414795,325.869446 574.271729,381.100586 518.886292,390.813721 
	C477.290619,398.108521 439.635681,376.939789 425.572754,332.178925 
M463.333984,291.036346 
	C464.803680,293.364929 464.285217,295.363586 463.320740,297.967224 
	C460.669006,305.125610 456.365906,311.854248 458.447418,320.313599 
	C466.334930,352.368530 503.685516,366.936737 531.101074,348.448608 
	C547.223633,337.576050 554.221924,317.449158 547.600708,301.246918 
	C544.268616,293.093353 539.568909,285.608948 531.979065,281.333099 
	C526.630676,278.320007 520.482849,276.363495 514.726868,273.849426 
	C506.590088,270.295471 502.445587,273.324921 503.323669,282.156891 
	C503.925873,288.213837 499.570251,294.079498 493.367401,295.564941 
	C487.899628,296.874359 481.936371,293.064758 479.893921,287.015015 
	C479.259094,285.134735 478.863983,282.998444 477.686707,281.511871 
	C474.995789,278.113892 476.591919,276.201080 479.435516,274.295807 
	C489.440460,267.592255 500.317749,265.358154 512.232117,267.224060 
	C519.504578,268.362976 525.957520,271.844910 533.363342,274.084198 
	C518.535706,259.844025 492.410797,259.345764 476.156494,272.633209 
	C474.101685,274.312988 472.069427,275.825287 469.488129,276.829468 
	C464.421509,278.800415 461.658386,285.122162 463.333984,291.036346 
z"/>
<path fill="#000000" opacity="1.000000" stroke="none" 
	d="
M561.852661,392.672882 
	C567.905396,392.642700 572.892029,393.520508 575.681335,399.342773 
	C579.362305,407.026428 574.847778,416.532288 566.347107,416.804779 
	C543.567139,417.535126 520.765442,417.552734 497.574127,416.013550 
	C499.737488,412.794434 502.426239,412.200775 505.542145,411.925537 
	C511.913818,411.362762 517.540344,409.271851 520.582031,402.951630 
	C521.338806,401.379089 522.778015,400.560242 524.342896,399.839355 
	C536.106445,394.420288 548.435547,391.985077 561.852661,392.672882 
z"/>
<path fill="#000000" opacity="1.000000" stroke="none" 
	d="
M632.460327,442.632996 
	C639.310303,434.603699 648.046082,432.340363 656.309509,436.203339 
	C664.798645,440.171844 669.526001,448.557159 668.165405,457.233124 
	C666.848022,465.633759 659.138672,472.800598 650.033081,474.089661 
	C638.327148,475.746857 626.565186,462.637756 629.146545,450.779358 
	C629.750061,448.007111 630.690125,445.345184 632.460327,442.632996 
z"/>
<path fill="#000000" opacity="1.000000" stroke="none" 
	d="
M485.934052,414.001709 
	C487.500977,414.531036 488.672668,415.358795 486.597870,416.059723 
	C484.593628,416.736755 482.350098,416.918762 480.208099,416.939117 
	C468.566376,417.049988 456.922882,417.129547 445.281250,417.048737 
	C436.853851,416.990265 432.180756,413.372467 431.690277,406.903198 
	C431.136993,399.605957 436.190247,393.763733 444.067596,392.674408 
	C450.198364,391.826569 456.325043,391.644196 462.151550,393.058960 
	C466.461426,404.165710 476.754761,408.276215 485.934052,414.001709 
z"/>
<path fill="#000000" opacity="1.000000" stroke="none" 
	d="
M496.520905,625.820679 
	C487.983185,628.554138 482.129089,623.806946 475.604828,620.114807 
	C480.747681,615.036926 496.163116,616.881592 501.176758,622.679810 
	C500.379547,624.565796 498.441345,624.870667 496.520905,625.820679 
z"/>
<path fill="#000000" opacity="1.000000" stroke="none" 
	d="
M517.745911,289.420044 
	C515.362610,286.624115 517.372314,285.828125 519.370178,285.279510 
	C520.797791,284.887451 522.981506,284.904358 522.998779,286.597931 
	C523.030212,289.675781 520.458740,289.800140 517.745911,289.420044 
z"/>
</svg>