<svg version="1.1" id="Layer_1" xmlns="http://www.w3.org/2000/svg" xmlns:xlink="http://www.w3.org/1999/xlink" x="0px" y="0px"
	 width="100%" viewBox="0 0 752 688" enable-background="new 0 0 752 688" xml:space="preserve">
<path fill="#000000" opacity="1.000000" stroke="none" 
	d="
M89.549561,523.409180 
	C77.070969,503.115082 66.586967,482.326996 60.721081,459.422546 
	C63.559334,461.030365 64.384399,464.029053 65.970825,466.448822 
	C67.351341,468.554535 68.732674,470.102631 71.596443,469.464508 
	C73.735031,468.988007 75.511696,470.061554 76.934021,471.587128 
	C80.806824,475.741150 84.601761,479.946472 85.977409,485.718475 
	C87.186035,490.789642 89.713707,495.136963 94.345833,497.650299 
	C100.507492,500.993622 104.924583,506.153351 109.630646,511.076782 
	C111.343643,512.868896 113.203812,514.584900 115.238777,515.983643 
	C116.785049,517.046448 118.809914,517.293457 120.336983,515.796265 
	C121.730797,514.429749 120.589890,512.924683 119.935425,511.672699 
	C115.076683,502.378082 109.857628,493.261169 105.282104,483.831116 
	C90.250687,452.851624 80.150002,420.310547 77.000748,385.974762 
	C70.881294,319.255310 80.874924,255.620895 116.588310,197.766830 
	C158.256104,130.266846 216.587326,83.968605 293.198608,61.550182 
	C319.599976,53.824463 346.627899,50.379841 374.035370,50.163082 
	C385.996613,50.068481 397.988892,51.013870 409.911346,52.376472 
	C416.224548,53.098000 422.123230,50.667458 427.999054,49.191151 
	C436.216736,47.126453 444.459259,46.759453 452.753510,46.685673 
	C456.708374,46.650494 459.787170,45.701660 462.623840,42.951939 
	C467.217834,38.498791 469.839355,38.937668 472.999725,44.473118 
	C473.993408,46.213619 475.285400,47.483639 477.204956,47.626129 
	C483.611755,48.101685 490.043243,50.022522 496.643188,47.457611 
	C496.809265,44.889744 493.623596,44.629345 493.016724,42.572414 
	C494.580322,40.235394 496.285858,41.865074 497.846954,42.339832 
	C524.020874,50.299679 546.877808,64.420174 568.962585,80.153336 
	C592.583923,96.981163 614.092957,116.072723 632.168396,138.742035 
	C657.365479,170.342865 677.601746,204.710678 690.377502,243.387695 
	C702.133240,278.976776 708.764221,315.264618 707.925476,352.730682 
	C707.445190,374.185425 706.079102,395.636963 700.342590,416.511383 
	C699.821655,418.407135 700.606567,420.550415 698.010437,422.348541 
	C698.010437,417.782593 698.013428,413.216614 698.009705,408.650665 
	C698.005615,403.651886 698.224915,398.639130 697.922058,393.658295 
	C697.631104,388.873901 696.310242,384.260773 694.513611,379.690735 
	C690.417480,380.328308 689.725769,384.075073 687.217407,386.240234 
	C684.750244,384.237183 684.994263,381.532349 684.967590,378.999054 
	C684.829285,365.836029 684.735779,352.672485 684.656921,339.508942 
	C684.626953,334.505646 683.579712,329.949707 680.076904,327.132202 
	C677.335876,325.579071 676.423279,331.460815 673.900635,327.023682 
	C672.803101,331.047089 674.118652,334.458649 674.180603,337.905548 
	C675.193237,394.253662 663.996887,447.710907 636.534851,497.320465 
	C611.735352,542.120056 577.683228,577.956116 534.168335,605.212708 
	C507.783478,621.739441 479.701416,633.842834 449.960144,642.348389 
	C429.393951,648.229980 408.310272,650.888428 386.894104,651.468445 
	C366.023499,652.033813 345.312653,651.195801 324.735138,647.494934 
	C321.699860,646.949036 318.461426,646.321289 315.469299,648.152832 
	C313.490570,649.364014 312.882477,650.912720 313.414734,653.213867 
	C313.888153,655.260742 314.811401,656.309265 316.953278,656.741699 
	C338.572266,661.106140 360.361633,663.209717 382.448242,662.797485 
	C407.916901,662.322205 432.781006,658.102783 457.392426,651.921692 
	C460.296417,651.192322 463.250092,650.663269 466.168335,649.987793 
	C469.622986,649.188171 472.382996,649.903137 475.362122,652.214661 
	C481.885925,657.276794 493.190399,656.287598 498.987976,650.356201 
	C503.469025,645.771729 507.914825,643.698669 514.560364,646.172485 
	C518.618286,647.682983 523.169983,645.203979 525.321594,641.542664 
	C529.255249,634.848877 535.375427,630.731262 542.067139,628.839966 
	C553.879883,625.501343 563.902649,618.142639 575.740540,615.145691 
	C576.220947,615.024170 576.691650,614.864014 577.212097,614.708313 
	C575.467834,617.703735 574.856750,618.299377 571.867859,620.553711 
	C540.347778,644.326782 505.009827,660.300537 467.381989,671.515015 
	C428.311310,683.159546 388.406677,686.328613 347.828796,683.417419 
	C282.049469,678.698242 223.754562,654.695496 171.498795,615.277161 
	C138.252213,590.198120 111.846581,558.835693 89.549561,523.409180 
M473.443604,448.944855 
	C472.886047,446.512909 472.270416,444.092377 471.791351,441.645050 
	C471.470612,440.006653 471.069763,438.070496 472.283234,436.822449 
	C476.793365,432.183716 480.487854,426.715729 485.847839,422.946899 
	C489.503601,420.376404 492.326355,421.239960 494.369812,425.205353 
	C496.977936,430.266449 498.595703,430.622284 502.352753,426.263550 
	C508.797943,418.786285 514.438293,410.563202 517.893250,401.388947 
	C521.575073,391.612244 527.569153,383.275757 532.414978,374.237671 
	C533.118469,372.925598 533.821594,371.363007 535.699890,371.729919 
	C537.736511,372.127747 538.104614,373.856781 538.147522,375.589081 
	C538.258850,380.085297 538.224060,384.585938 538.385559,389.079895 
	C538.548096,393.602203 540.644226,395.394592 545.132568,394.879211 
	C550.015198,394.318542 551.845947,391.110260 552.014160,386.582275 
	C552.842468,364.276276 553.293579,341.972595 551.772217,319.673950 
	C551.354370,313.549408 548.942932,311.065338 542.683472,310.950836 
	C537.521851,310.856415 532.351990,310.959229 527.191650,311.141449 
	C524.088501,311.251068 522.371155,310.264557 521.512268,306.991058 
	C516.072144,286.256622 503.264282,270.253784 488.261139,255.658997 
	C484.757843,252.251022 482.073883,252.053680 478.162445,255.483063 
	C452.740692,277.771973 427.144531,299.862976 401.510437,321.908234 
	C395.204041,327.331696 388.618683,332.441101 382.016876,337.506256 
	C378.815063,339.962769 375.364014,339.514435 372.427429,336.850189 
	C369.366455,334.073059 368.845825,330.598602 370.439545,326.824829 
	C371.306030,324.773102 372.897461,323.288116 374.553223,321.871399 
	C404.038361,296.643127 433.517670,271.408081 463.015350,246.194458 
	C465.601624,243.983795 467.765045,241.500504 468.718750,238.180115 
	C472.620483,224.595886 476.526428,211.012543 480.332916,197.401489 
	C481.305969,193.922104 480.603485,190.747131 477.436890,188.547241 
	C474.129181,186.249374 471.124451,187.362274 468.276489,189.542221 
	C467.615967,190.047821 467.000092,190.612335 466.370667,191.157822 
	C456.175812,199.992645 445.948212,208.790314 435.821259,217.702316 
	C434.123566,219.196320 432.897125,219.666046 430.600616,218.649292 
	C426.664093,216.906418 422.489624,215.615341 418.316071,214.507462 
	C391.968109,207.513443 365.480103,207.127533 338.633575,211.861069 
	C306.393463,217.545624 278.431610,231.271255 255.962784,255.023163 
	C217.458694,295.726074 207.804611,342.913361 226.250153,395.774719 
	C231.395554,410.520416 238.965240,423.950287 249.717468,435.424408 
	C251.971817,437.830109 254.250656,440.898529 258.145569,439.235138 
	C262.859314,437.222107 267.969086,438.917938 272.740234,436.402344 
	C273.925934,442.313690 271.943817,447.036774 270.883179,451.814453 
	C268.286499,463.510925 265.371582,475.136444 262.733887,486.824188 
	C260.822449,495.293854 263.702667,498.783112 272.180237,498.783142 
	C286.008881,498.783203 299.837585,498.864380 313.666199,498.853577 
	C320.483154,498.848236 323.157990,497.214264 325.336304,490.924408 
	C326.845917,486.565521 329.592560,483.617798 333.234436,481.003876 
	C337.647583,477.836426 342.743408,478.432892 347.598999,477.609039 
	C352.653778,476.751373 358.125946,476.903809 362.170532,471.047638 
	C363.546600,477.476532 367.755219,479.362244 373.067657,479.590729 
	C374.897003,479.669403 376.722473,479.905579 378.551025,479.921417 
	C388.046814,480.003815 397.542969,480.051392 407.039093,480.081390 
	C409.900085,480.090424 412.917938,481.498505 415.166534,478.895447 
	C419.330505,482.765961 420.928589,487.541016 422.565460,492.243591 
	C424.210266,496.968964 427.252106,499.059265 432.336853,498.985626 
	C446.496643,498.780548 460.660583,498.873016 474.822662,498.803650 
	C481.663513,498.770172 484.726746,494.775055 483.080414,488.037323 
	C479.960297,475.267609 476.787445,462.510742 473.443604,448.944855 
M112.642776,450.898987 
	C113.843910,453.825287 115.034225,456.756073 116.247780,459.677216 
	C134.529099,503.681976 162.079361,540.889465 199.622940,570.159790 
	C243.942535,604.712952 293.842072,625.954529 350.319702,631.143860 
	C381.169495,633.978394 411.438324,631.684875 441.518341,624.816162 
	C445.549683,623.895569 446.092468,622.156616 444.893097,618.455688 
	C441.818054,608.967163 437.963348,599.757141 435.298828,590.113098 
	C432.777283,580.986511 429.528931,572.061768 426.659241,563.029602 
	C425.678101,559.941406 423.967072,558.992859 420.642029,559.673340 
	C383.311920,567.312317 346.552979,564.990417 310.111084,553.890198 
	C276.962219,543.793091 247.435165,527.393738 222.712662,503.277222 
	C182.101654,463.661682 161.199707,414.670685 156.622879,358.426453 
	C156.124069,352.296661 155.303879,351.442841 148.896286,351.399139 
	C141.897430,351.351410 134.896469,351.476929 127.899300,351.357605 
	C121.824196,351.254059 118.568886,347.827911 118.686859,341.990326 
	C118.789917,336.890961 122.149361,333.809357 127.891808,333.737518 
	C134.389923,333.656219 140.890060,333.746704 147.388504,333.681091 
	C154.253189,333.611786 155.699188,332.187225 156.630112,325.362885 
	C157.439072,319.432648 158.211914,313.481720 159.421570,307.626862 
	C160.392761,302.926147 159.409103,300.176056 154.390732,298.694733 
	C147.054306,296.529205 139.858170,293.837128 132.721649,291.062378 
	C127.355850,288.976105 125.338562,283.864807 127.441315,278.856201 
	C129.710922,273.450165 133.886795,271.736603 139.560867,273.892700 
	C146.255508,276.436615 152.999252,278.861572 159.621033,281.583038 
	C163.592026,283.215088 165.592712,282.278473 167.036392,278.124664 
	C175.945053,252.492142 189.385437,229.477493 207.463699,209.197083 
	C211.729416,204.411743 211.746429,204.159180 206.998657,199.551743 
	C201.383987,194.103073 195.508270,188.919434 189.981354,183.385559 
	C184.991653,178.389557 185.194183,174.132523 190.182098,169.158920 
	C191.243591,168.100464 192.344147,167.080093 193.447998,166.065369 
	C239.052856,124.141937 292.517822,100.023872 354.430481,95.174995 
	C361.045044,94.656952 367.773254,93.902626 374.328033,95.581062 
	C379.789368,96.979500 382.397217,101.296257 381.444916,106.516037 
	C380.531219,111.523796 376.882538,113.772888 371.217377,113.539886 
	C364.900726,113.280083 358.526276,113.077484 352.241699,113.611572 
	C319.291168,116.411842 288.306580,125.880669 259.020325,141.240631 
	C241.938492,150.199646 226.762512,161.791336 211.869598,173.854630 
	C208.817352,176.326935 208.822556,178.674408 211.778671,181.225250 
	C214.552475,183.618759 217.302032,186.052673 219.906586,188.626343 
	C222.217529,190.909882 224.032303,190.532928 226.234543,188.379639 
	C230.881714,183.835800 235.978760,179.803894 241.226959,175.963745 
	C264.184784,159.165329 289.306885,146.854614 316.797211,139.437134 
	C337.839050,133.759628 359.275024,131.413040 381.040771,131.700241 
	C386.848938,131.776901 388.528961,128.721024 385.816711,123.404854 
	C385.293488,122.379303 384.505951,121.436920 384.210999,120.355103 
	C382.485474,114.026062 383.687378,112.379715 390.263763,112.774925 
	C395.234192,113.073616 400.238007,113.610519 405.103577,114.630142 
	C409.751129,115.604065 411.842926,114.150993 412.612671,109.520439 
	C414.111328,100.504654 415.937286,91.543068 417.642975,82.561928 
	C419.062653,75.086639 417.864868,73.286537 410.417023,72.292206 
	C358.774567,65.397583 309.088165,72.313629 261.567993,93.784286 
	C212.422958,115.989098 172.418930,149.294876 141.933136,193.788239 
	C104.352409,248.636459 90.373169,309.675385 95.563347,375.438904 
	C97.588051,401.093506 103.553581,425.978973 112.642776,450.898987 
M537.471619,240.985916 
	C538.187500,241.367203 539.113953,241.576233 539.587769,242.155502 
	C547.180481,251.437607 557.247314,256.071503 568.861633,257.696960 
	C571.319092,258.040894 572.155762,259.672821 572.998840,261.498047 
	C575.867249,267.708160 578.085266,274.163940 580.146301,280.674561 
	C585.129944,296.417633 588.306641,312.541168 590.003967,328.947968 
	C590.379211,332.575348 592.085388,333.760712 595.522339,333.710602 
	C603.185852,333.598846 610.855164,333.585388 618.517212,333.753632 
	C626.191406,333.922119 630.135437,339.450836 627.589539,346.614624 
	C626.480591,349.734955 626.227051,352.727173 626.721191,355.912659 
	C627.415649,360.389008 627.171570,364.881958 626.849915,369.376160 
	C625.287048,391.210938 621.200745,412.537048 614.458313,433.386261 
	C602.297302,470.991180 582.854980,504.085419 554.209229,531.540771 
	C552.990662,532.708618 551.961670,534.575073 549.702515,533.997314 
	C549.826477,530.881958 549.826416,530.881897 554.417114,525.987732 
	C559.112366,520.981873 558.979675,518.302185 553.896973,514.015320 
	C548.427307,509.402069 542.786926,504.964508 537.606567,500.044312 
	C534.078430,496.693268 531.677002,497.203674 528.461060,500.427795 
	C505.293335,523.654663 478.453735,541.195679 447.375275,551.991272 
	C443.806458,553.231018 442.538208,555.006409 443.903534,558.679688 
	C445.177612,562.107544 446.256012,565.622620 447.187469,569.160583 
	C449.630127,578.438293 454.283569,586.936462 456.096802,596.503174 
	C457.439880,603.589294 460.437012,610.361938 462.635559,617.085388 
	C464.907379,617.413269 466.404236,616.583313 467.950806,616.046448 
	C514.664001,599.827820 553.867798,572.517883 586.538269,535.609924 
	C629.815735,486.719299 650.762939,428.757233 654.418274,364.346680 
	C656.402466,329.385162 652.110779,294.939911 640.685669,261.507080 
	C631.796326,235.494705 621.131470,210.238739 604.714966,188.233093 
	C577.065918,151.170624 542.888062,121.263451 501.456970,100.072922 
	C482.970947,90.617981 463.633759,83.519333 443.462555,78.693878 
	C437.547211,77.278770 436.436096,78.112152 435.205231,83.944237 
	C433.143677,93.712074 431.349548,103.543060 429.000488,113.240295 
	C428.027191,117.258247 428.994019,118.932106 432.898743,120.054039 
	C446.365234,123.923294 459.469818,128.859726 472.028534,135.071136 
	C496.527649,147.188156 519.000549,162.220840 538.259521,181.817230 
	C540.937988,184.542664 541.567139,186.568237 538.764099,189.701965 
	C532.875977,196.284729 528.659546,204.599380 530.331116,212.980698 
	C533.086121,226.793961 526.166992,233.557755 515.867371,239.660736 
	C510.093811,243.081818 508.661133,248.191589 511.364471,251.624634 
	C513.905823,254.851959 518.641418,254.416519 523.874878,250.533676 
	C528.145203,247.365356 531.905762,243.498260 537.471619,240.985916 
M579.049133,470.534943 
	C584.036682,461.309845 587.975281,451.500885 593.129150,442.440125 
	C602.069763,426.722046 597.132141,407.934662 605.393372,392.269897 
	C605.462219,392.139343 605.406006,391.942291 605.406250,391.776276 
	C605.423035,380.651855 606.978088,369.646423 607.824768,358.586609 
	C608.010376,356.162598 607.716614,352.199097 604.048340,352.031372 
	C599.955872,351.844177 595.343689,350.685791 591.765137,352.744049 
	C588.576111,354.578308 590.743225,358.921661 589.951172,362.057159 
	C589.627136,363.339508 589.496643,364.683655 589.400146,366.008575 
	C587.329407,394.413910 579.430420,421.234772 567.315857,446.886749 
	C561.890442,458.374725 554.845520,468.905090 547.431946,479.173431 
	C545.240112,482.209320 545.268372,484.370209 548.309692,486.696655 
	C551.479126,489.121063 554.550842,491.709564 557.419800,494.480499 
	C560.484009,497.439972 562.875671,496.764954 564.372681,493.269867 
	C567.889099,485.060303 574.263794,478.755859 579.049133,470.534943 
M170.755722,340.289795 
	C169.933487,341.537750 169.014908,342.733337 168.304153,344.041840 
	C162.360657,354.983948 166.366531,369.311096 177.003967,375.279449 
	C188.975601,381.996368 203.028656,378.542755 209.628342,367.261810 
	C215.585190,357.079681 212.987366,343.276642 203.788376,336.232391 
	C193.158798,328.092682 181.407516,329.361633 170.755722,340.289795 
M135.776367,547.824341 
	C137.059189,549.542297 138.944946,550.226746 140.908325,550.674805 
	C142.345963,551.002747 144.093323,551.530396 145.047150,550.022766 
	C146.049210,548.438904 146.186264,546.568726 144.991501,544.852966 
	C139.309006,536.692322 131.676605,530.237366 125.458244,522.542969 
	C124.699745,521.604431 123.521805,521.007935 122.366127,521.868652 
	C121.189178,522.745178 121.437828,524.099609 122.204926,524.999146 
	C127.881569,531.655884 129.811020,540.508789 135.776367,547.824341 
z"/>
<path fill="#000000" opacity="1.000000" stroke="none" 
	d="
M301.525146,393.531555 
	C298.828094,396.038513 296.495728,398.431030 293.949524,400.568909 
	C289.437012,404.357758 283.806519,404.210052 280.516724,400.393982 
	C277.413177,396.793823 278.278076,391.484070 282.687714,387.604736 
	C298.694244,373.523132 313.929993,358.632568 328.981689,343.549011 
	C335.887482,336.628601 340.600311,336.627777 347.619446,343.641235 
	C355.039062,351.054871 362.551208,358.380127 369.811005,365.947296 
	C372.529449,368.780884 374.506744,368.760529 377.235901,366.057098 
	C381.727173,361.608093 386.506439,357.450348 391.151642,353.156097 
	C394.576782,349.989777 397.515045,346.656250 399.265442,342.054779 
	C401.758911,335.499817 409.342010,332.097137 415.653259,333.836700 
	C421.687836,335.499939 426.176056,342.171844 425.446259,348.394257 
	C424.663574,355.067688 419.107452,360.050842 411.721161,360.340729 
	C409.352234,360.433685 407.646912,361.263885 405.983978,362.797668 
	C398.275452,369.907288 390.477142,376.919495 382.769226,384.029755 
	C375.196747,391.015015 370.996002,391.132324 363.536743,383.953156 
	C356.460114,377.142212 349.446503,370.251556 342.704834,363.112946 
	C339.394257,359.607483 337.230896,359.210175 333.534058,362.925323 
	C323.207367,373.303223 312.406921,383.209808 301.525146,393.531555 
z"/>
<path fill="#000000" opacity="1.000000" stroke="none" 
	d="
M483.024567,344.325195 
	C473.357300,348.367645 463.369934,346.699249 456.749817,340.159729 
	C449.749969,333.245026 447.618591,323.986450 451.056549,315.428040 
	C454.581909,306.652100 464.938293,299.180847 473.813293,299.010956 
	C482.096222,298.852448 492.062408,306.171295 495.589111,315.002441 
	C499.198914,324.041687 497.051758,333.086487 489.485840,339.889771 
	C487.651154,341.539490 485.419678,342.747955 483.024567,344.325195 
M468.426514,328.036682 
	C471.209961,330.512604 474.259247,331.438660 477.387909,328.882111 
	C479.634827,327.046082 481.260956,324.733978 480.199738,321.487946 
	C478.892578,317.489502 475.016785,315.524475 471.094421,316.930786 
	C466.602325,318.541321 465.504425,322.248840 468.426514,328.036682 
z"/>
<path fill="#000000" opacity="1.000000" stroke="none" 
	d="
M343.118103,227.777924 
	C367.382477,227.779526 391.163788,227.766068 414.944946,227.810837 
	C416.854889,227.814423 419.416260,227.000977 420.420105,229.122940 
	C421.641205,231.704132 418.807220,232.800446 417.406311,234.199539 
	C414.586792,237.015518 411.473724,239.534821 408.569153,242.269333 
	C406.259796,244.443512 403.636871,245.389404 400.446960,245.378906 
	C380.657227,245.313797 360.867126,245.346756 341.077148,245.346375 
	C340.744598,245.346359 340.411652,245.344681 340.079559,245.329498 
	C333.274719,245.018250 328.702179,241.462677 328.723541,236.501511 
	C328.744507,231.626266 333.497314,227.992752 340.140503,227.783539 
	C340.971191,227.757385 341.803436,227.778564 343.118103,227.777924 
z"/>
<path fill="#000000" opacity="1.000000" stroke="none" 
	d="
M188.834473,493.647888 
	C197.438431,493.733795 202.100861,503.399902 201.133820,509.309753 
	C199.984222,516.335388 193.026489,521.229980 185.644852,520.197266 
	C178.930115,519.257812 172.825729,511.267273 173.686081,504.543457 
	C174.448410,498.585785 180.784134,493.890991 188.834473,493.647888 
z"/>
<path fill="#000000" opacity="1.000000" stroke="none" 
	d="
M317.489319,592.917480 
	C315.190948,594.856812 313.236115,596.736694 310.932922,597.961365 
	C305.941833,600.615112 299.101715,599.233032 295.398041,595.158325 
	C291.147552,590.482056 290.428619,584.199341 293.560760,579.103821 
	C296.826660,573.790649 302.790100,571.466187 308.583252,573.248291 
	C314.473175,575.060181 318.434357,580.210571 318.330719,586.147949 
	C318.293365,588.288818 317.903778,590.423462 317.489319,592.917480 
z"/>
<path fill="#000000" opacity="1.000000" stroke="none" 
	d="
M151.290985,423.976135 
	C150.033829,431.123413 145.396545,435.240234 139.543335,434.822418 
	C134.729095,434.478790 130.178513,429.672485 129.744263,424.472748 
	C129.295715,419.101807 133.195206,414.271667 138.847107,413.197479 
	C145.041931,412.020111 150.075150,416.211060 151.290985,423.976135 
z"/>
<path fill="#000000" opacity="1.000000" stroke="none" 
	d="
M584.133179,185.588715 
	C601.872925,195.561188 607.467224,213.465637 598.093689,229.277359 
	C590.139038,242.695557 572.222839,247.840927 558.881714,240.538620 
	C545.174377,233.035873 539.349243,215.210526 546.054810,201.287308 
	C553.484009,185.861588 568.530945,179.540512 584.133179,185.588715 
M571.204529,215.972183 
	C572.057739,213.740387 574.354797,213.108154 575.940125,211.687210 
	C577.871948,209.955719 578.350952,207.768143 577.742065,205.317917 
	C577.299194,203.536102 576.209045,202.384674 574.307190,202.184052 
	C570.040161,201.733917 566.402466,202.966461 563.599854,206.304001 
	C560.891907,209.528732 559.209900,213.082886 560.927795,217.322861 
	C562.121765,220.269882 563.587036,223.660461 567.264099,223.503067 
	C570.955261,223.345062 569.710815,219.382675 570.753723,217.154617 
	C570.823792,217.004868 570.859070,216.838852 571.204529,215.972183 
z"/>
<path fill="#000000" opacity="1.000000" stroke="none" 
	d="
M531.816101,550.900146 
	C521.243469,559.483582 510.993927,567.954529 497.474152,573.425842 
	C503.422791,562.027100 518.476135,546.163208 533.982178,546.941528 
	C534.476135,548.768311 532.900146,549.526306 531.816101,550.900146 
z"/>
<path fill="#000000" opacity="1.000000" stroke="none" 
	d="
M198.818390,358.229187 
	C195.275284,364.463745 190.740601,366.609772 185.616302,364.779602 
	C181.160248,363.188080 178.331131,357.898926 179.346405,353.057831 
	C180.523392,347.445618 185.215057,344.052490 190.636337,344.892700 
	C196.771957,345.843597 199.743927,350.461517 198.818390,358.229187 
z"/>
</svg>